:SAMPLES-PER-SECOND 30
:FULLY-SPECIFIED
:DEGREES
47
root  -22.2543 24.7988 1.26748 179.394 85.7501 -169.607
RightUpLeg  -63.0262 -7.96668 6.07291
RightLeg  92.7838 11.1729 -1.21529
RightFoot  -20.9893 -0.387548 -5.74819
RightToes  1.80444e-009 -3.18055e-015 8.94531e-016
Spine  51.8915 -1.70704 0.435538
Spine1  2.83232 -1.16288 2.22341
HEad  -25.4469 0.950372 0.578399
LeftShoulder1  0 -2.69403e-036 -1.28585e-037
LeftArm  -7.70559 -45.5664 -74.4259
LeftForeArm  -125.559 -50.8334 167.103
LeftHand  -0.317385 3.14326 18.8545
RightShoulder  -2.48481e-017 0 -8.08114e-019
RightArm  -2.00567 37.0599 74.5385
RightForeArm  -94.5086 47.82 -152.823
RightHand  3.21064 -15.7837 -19.2937
LeftUpLeg  -63.3984 -1.12863 -3.45142
LeftLeg  92.5456 -13.1607 1.65769
LeftFoot  -19.1796 0.0143987 1.20662
LeftToes  -1.10049e-010 -1.44524e-010 4.8374e-011
48
root  -21.4536 22.657 1.10739 -166.733 86.2827 -154.83
RightUpLeg  -67.068 -6.86461 6.86491
RightLeg  101.738 11.6994 -1.85754
RightFoot  -24.5267 -0.596117 -6.03945
RightToes  1.80444e-009 -3.18055e-015 8.94531e-016
Spine  54.1115 -1.95343 0.72972
Spine1  2.7577 -1.07178 1.93455
HEad  -27.2808 1.17493 0.198998
LeftShoulder1  0 -2.69403e-036 -1.28585e-037
LeftArm  -7.82906 -46.0697 -74.667
LeftForeArm  -125.376 -50.4883 167.366
LeftHand  -0.328507 3.07952 18.6428
RightShoulder  -2.48481e-017 0 -8.08114e-019
RightArm  -1.35859 37.4576 75.4901
RightForeArm  -93.5921 47.7392 -152.868
RightHand  3.28465 -15.8844 -19.8033
LeftUpLeg  -67.5912 -1.85956 -2.90125
LeftLeg  101.286 -14.3486 4.0315
LeftFoot  -23.1914 0.176254 2.83726
LeftToes  -1.10049e-010 -1.44524e-010 4.8374e-011
49
root  -20.6289 20.4094 0.946364 -144.269 86.0733 -131.705
RightUpLeg  -71.5461 -5.8274 8.41143
RightLeg  110.447 12.5158 -2.6097
RightFoot  -27.4588 -0.794229 -6.38019
RightToes  1.80444e-009 -3.18055e-015 8.94531e-016
Spine  56.0222 -2.29553 1.5324
Spine1  2.56948 -0.883531 1.84164
HEad  -29.6779 1.07268 0.0412212
LeftShoulder1  0 -2.69403e-036 -1.28585e-037
LeftArm  -7.80303 -46.8308 -74.9799
LeftForeArm  -124.779 -50.3268 167.45
LeftHand  -0.404001 2.8583 18.8107
RightShoulder  -2.48481e-017 0 -8.08114e-019
RightArm  -1.07584 38.0469 76.0032
RightForeArm  -92.9468 47.6229 -152.984
RightHand  3.32254 -15.9391 -20.0486
LeftUpLeg  -72.844 -2.4863 -1.67235
LeftLeg  110.688 -15.8685 5.03956
LeftFoot  -26.4285 0.1806 2.29677
LeftToes  -1.10049e-010 -1.44524e-010 4.8374e-011
50
root  -19.8293 18.2641 0.810123 -131.542 85.8487 -118.275
RightUpLeg  -75.8402 -5.11755 9.39665
RightLeg  118.545 13.5646 -3.25707
RightFoot  -30.1245 -0.976871 -6.59671
RightToes  1.80444e-009 -3.18055e-015 8.94531e-016
Spine  57.8645 -2.37004 1.81459
Spine1  2.61795 -0.786919 1.90221
HEad  -32.7811 0.570657 0.178262
LeftShoulder1  0 -2.69403e-036 -1.28585e-037
LeftArm  -7.68556 -48.0154 -75.0739
LeftForeArm  -124.168 -50.5073 167.263
LeftHand  -0.47214 2.69775 19.2169
RightShoulder  -2.48481e-017 0 -8.08114e-019
RightArm  -1.0178 38.6658 76.2404
RightForeArm  -92.5087 47.5197 -153.097
RightHand  3.33887 -15.9772 -20.1078
LeftUpLeg  -77.4792 -2.91483 -1.37641
LeftLeg  118.938 -17.4673 5.52277
LeftFoot  -28.9006 0.16735 1.86027
LeftToes  -1.10049e-010 -1.44524e-010 4.8374e-011
51
root  -19.1458 16.3728 0.723785 -139.318 86.8453 -123.745
RightUpLeg  -78.2802 -4.82145 8.42405
RightLeg  125.88 14.6957 -3.64862
RightFoot  -32.0851 -1.14448 -6.90679
RightToes  1.80444e-009 -3.18055e-015 8.94531e-016
Spine  61.2459 -1.6675 0.497518
Spine1  2.54859 -0.937402 2.22031
HEad  -35.6584 -0.114961 0.381012
LeftShoulder1  0 -2.69403e-036 -1.28585e-037
LeftArm  -7.42977 -49.1794 -75.0178
LeftForeArm  -124.042 -50.8855 166.95
LeftHand  -0.489994 2.69426 19.586
RightShoulder  -2.48481e-017 0 -8.08114e-019
RightArm  -0.853234 39.0169 76.4735
RightForeArm  -92.0168 47.5715 -152.988
RightHand  3.40605 -16.0846 -20.5001
LeftUpLeg  -79.2887 -2.7476 -3.33934
LeftLeg  125.699 -19.2648 6.08133
LeftFoot  -30.7635 0.235653 2.1332
LeftToes  -1.10049e-010 -1.44524e-010 4.8374e-011
52
root  -18.41 14.6311 0.611634 -133.78 87.2578 -115.771
RightUpLeg  -80.2304 -4.95567 8.58833
RightLeg  132.551 16.1024 -4.06445
RightFoot  -33.202 -1.25754 -7.15628
RightToes  1.80444e-009 -3.18055e-015 8.94531e-016
Spine  63.7465 -1.61924 0.264565
Spine1  2.96354 -0.940051 1.95974
HEad  -37.2027 -0.595786 0.648733
LeftShoulder1  0 -2.69403e-036 -1.28585e-037
LeftArm  -7.0498 -50.0103 -74.9593
LeftForeArm  -123.928 -51.1917 166.691
LeftHand  -0.519855 2.63343 19.8148
RightShoulder  -2.48481e-017 0 -8.08114e-019
RightArm  -0.585542 39.1278 76.7552
RightForeArm  -91.3575 47.8114 -152.601
RightHand  3.53057 -16.2701 -21.2445
LeftUpLeg  -81.287 -2.43045 -4.44809
LeftLeg  132.885 -20.5704 5.53376
LeftFoot  -31.6238 0.218831 1.94918
LeftToes  -1.10049e-010 -1.44524e-010 4.8374e-011
53
root  -17.2723 12.9491 0.456332 -96.4845 82.4382 -81.044
RightUpLeg  -86.1792 -2.42957 16.6505
RightLeg  137.715 19.0229 -5.59266
RightFoot  -33.4685 -1.26753 -7.11544
RightToes  1.80444e-009 -3.18055e-015 8.94531e-016
Spine  58.7986 -2.8142 4.92716
Spine1  5.76559 1.19094 -0.0966406
HEad  -37.5741 -0.668641 1.16267
LeftShoulder1  0 -2.69403e-036 -1.28585e-037
LeftArm  -6.65036 -50.6888 -74.8866
LeftForeArm  -123.381 -51.2392 166.611
LeftHand  -0.589927 2.44354 20.0135
RightShoulder  -2.48481e-017 0 -8.08114e-019
RightArm  -0.383415 39.2883 76.9944
RightForeArm  -90.4256 48.0348 -152.211
RightHand  3.57422 -16.2884 -21.6489
LeftUpLeg  -90.1041 -0.322715 1.72311
LeftLeg  142.13 -19.7779 2.90291
LeftFoot  -32.0692 0.0474556 0.871002
LeftToes  -1.10049e-010 -1.44524e-010 4.8374e-011
54
root  -16.4174 11.9907 0.335315 -87.4758 79.1198 -74.2661
RightUpLeg  -89.634 -1.84895 22.064
RightLeg  140.936 21.3637 -6.6088
RightFoot  -34.3083 -1.24128 -6.69248
RightToes  1.80444e-009 -3.18055e-015 8.94531e-016
Spine  55.4142 -3.92864 8.27898
Spine1  7.67398 2.06077 -1.01048
HEad  -38.0606 -0.461891 1.76915
LeftShoulder1  0 -2.69403e-036 -1.28585e-037
LeftArm  -6.41785 -51.4269 -74.7055
LeftForeArm  -123.081 -51.0234 166.767
LeftHand  -0.64037 2.35798 20.4798
RightShoulder  -2.48481e-017 0 -8.08114e-019
RightArm  -0.250238 39.62 77.1202
RightForeArm  -89.5215 47.9641 -152.247
RightHand  3.52083 -16.102 -21.6843
LeftUpLeg  -96.1121 0.052733 5.48739
LeftLeg  147.476 -19.2943 1.58706
LeftFoot  -31.632 -0.0565023 0.230512
LeftToes  -1.10049e-010 -1.44524e-010 4.8374e-011
55
root  -16.5162 12.3305 0.44341 -117.046 84.729 -99.2067
RightUpLeg  -84.2825 -4.72052 14.0692
RightLeg  142.072 20.4636 -5.67275
RightFoot  -35.0265 -1.15708 -6.03577
RightToes  1.80444e-009 -3.18055e-015 8.94531e-016
Spine  63.4752 -1.80821 2.23167
Spine1  5.53557 0.215527 1.23929
HEad  -39.3217 -0.250098 2.06732
LeftShoulder1  0 -2.69403e-036 -1.28585e-037
LeftArm  -6.54445 -52.1225 -74.3505
LeftForeArm  -123.838 -50.7561 167.039
LeftHand  -0.616925 2.53471 21.1979
RightShoulder  -2.48481e-017 0 -8.08114e-019
RightArm  -0.259366 39.9774 77.129
RightForeArm  -89.8702 47.5306 -152.893
RightHand  3.64018 -16.2334 -22.5257
LeftUpLeg  -87.2346 -1.31039 -2.38573
LeftLeg  144.967 -21.0743 3.20483
LeftFoot  -32.0471 -0.0420472 0.319872
LeftToes  -1.10049e-010 -1.44524e-010 4.8374e-011
